<svg xmlns="http://www.w3.org/2000/svg" xmlns:xlink="http://www.w3.org/1999/xlink" width="700" zoomAndPan="magnify" viewBox="0 0 525 361.499994" height="482" preserveAspectRatio="xMidYMid meet" version="1.0"><defs><g/></defs><g fill="#ffffff" fill-opacity="1"><g transform="translate(150.447946, 223.940249)"><g><path d="M 47.59375 0 C 52.632812 0 57.46875 -0.847656 62.09375 -2.546875 C 66.71875 -4.242188 70.898438 -6.582031 74.640625 -9.5625 C 78.390625 -12.550781 81.640625 -16.066406 84.390625 -20.109375 C 87.140625 -24.148438 89.101562 -28.453125 90.28125 -33.015625 L 90.28125 0 Z M 56.5625 -122.953125 C 53.507812 -122.953125 50.957031 -121.75 48.90625 -119.34375 C 46.863281 -116.945312 45.84375 -114.285156 45.84375 -111.359375 L 45.84375 0 L 4.390625 0 C 7.316406 0 9.800781 -1.195312 11.84375 -3.59375 C 13.894531 -6 14.921875 -8.664062 14.921875 -11.59375 L 14.921875 -111.359375 C 14.921875 -114.285156 13.894531 -116.945312 11.84375 -119.34375 C 9.800781 -121.75 7.316406 -122.953125 4.390625 -122.953125 Z M 56.5625 -122.953125 "/></g></g></g><g fill="#ffffff" fill-opacity="1"><g transform="translate(245.113603, 223.940249)"><g><path d="M 45.84375 -11.59375 C 45.84375 -8.664062 46.863281 -6 48.90625 -3.59375 C 50.957031 -1.195312 53.507812 0 56.5625 0 L 4.390625 0 C 7.316406 0 9.800781 -1.195312 11.84375 -3.59375 C 13.894531 -6 14.921875 -8.664062 14.921875 -11.59375 L 14.921875 -111.359375 C 14.921875 -114.285156 13.894531 -116.945312 11.84375 -119.34375 C 9.800781 -121.75 7.316406 -122.953125 4.390625 -122.953125 L 56.5625 -122.953125 C 53.507812 -122.953125 50.957031 -121.75 48.90625 -119.34375 C 46.863281 -116.945312 45.84375 -114.285156 45.84375 -111.359375 Z M 90.984375 -108.375 C 90.984375 -110.125 90.660156 -111.816406 90.015625 -113.453125 C 89.367188 -115.097656 88.519531 -116.59375 87.46875 -117.9375 C 86.414062 -119.289062 85.15625 -120.40625 83.6875 -121.28125 C 82.226562 -122.15625 80.675781 -122.710938 79.03125 -122.953125 L 125.0625 -122.953125 C 121.894531 -122.597656 118.640625 -121.71875 115.296875 -120.3125 C 111.960938 -118.90625 108.65625 -117.148438 105.375 -115.046875 C 102.101562 -112.941406 98.972656 -110.570312 95.984375 -107.9375 C 93.003906 -105.300781 90.222656 -102.578125 87.640625 -99.765625 C 88.578125 -101.054688 89.367188 -102.398438 90.015625 -103.796875 C 90.660156 -105.203125 90.984375 -106.726562 90.984375 -108.375 Z M 45.84375 -61.65625 C 45.957031 -61.53125 46.132812 -61.46875 46.375 -61.46875 L 45.84375 -61.46875 Z M 70.25 -80.4375 C 74.113281 -79.269531 77.625 -76.460938 80.78125 -72.015625 C 83.945312 -67.566406 86.9375 -62.351562 89.75 -56.375 C 92.5625 -50.40625 95.253906 -44.113281 97.828125 -37.5 C 100.410156 -30.882812 103.101562 -24.796875 105.90625 -19.234375 C 108.71875 -13.671875 111.675781 -9.070312 114.78125 -5.4375 C 117.882812 -1.8125 121.3125 0 125.0625 0 L 85.890625 0 C 83.898438 0 81.910156 -1.40625 79.921875 -4.21875 C 77.929688 -7.03125 75.910156 -10.570312 73.859375 -14.84375 C 71.804688 -19.113281 69.753906 -23.796875 67.703125 -28.890625 C 65.660156 -33.984375 63.492188 -38.8125 61.203125 -43.375 C 58.921875 -47.945312 56.550781 -51.898438 54.09375 -55.234375 C 51.632812 -58.578125 49.0625 -60.65625 46.375 -61.46875 C 47.78125 -61.59375 49.414062 -62.238281 51.28125 -63.40625 C 53.15625 -64.570312 55.144531 -66.035156 57.25 -67.796875 C 59.363281 -69.554688 61.53125 -71.546875 63.75 -73.765625 C 65.976562 -75.992188 68.144531 -78.21875 70.25 -80.4375 Z M 70.25 -80.4375 "/></g></g></g><g fill="#ffffff" fill-opacity="1"><g transform="translate(206.668273, 259.261686)"><g><path d="M 1.203125 -0.21875 C 1.585938 -0.21875 1.914062 -0.351562 2.1875 -0.625 C 2.457031 -0.894531 2.597656 -1.222656 2.609375 -1.609375 L 2.609375 -13.765625 C 2.597656 -14.140625 2.457031 -14.460938 2.1875 -14.734375 C 1.914062 -15.003906 1.585938 -15.140625 1.203125 -15.140625 L 0.921875 -15.140625 L 0.921875 -15.359375 L 7.59375 -15.359375 L 7.578125 -15.140625 L 7.3125 -15.140625 C 6.925781 -15.140625 6.59375 -15.003906 6.3125 -14.734375 C 6.039062 -14.460938 5.90625 -14.140625 5.90625 -13.765625 L 5.90625 -0.9375 L 8.78125 -0.9375 C 9.851562 -0.9375 10.75 -1.242188 11.46875 -1.859375 C 12.195312 -2.472656 12.734375 -3.347656 13.078125 -4.484375 L 13.296875 -4.484375 L 12.296875 0 L 0.921875 0 L 0.921875 -0.21875 Z M 1.203125 -0.21875 "/></g></g></g><g fill="#ffffff" fill-opacity="1"><g transform="translate(228.966696, 259.261686)"><g><path d="M 17.34375 -15.140625 L 16.96875 -15.140625 C 16.664062 -15.140625 16.398438 -15.039062 16.171875 -14.84375 C 15.953125 -14.65625 15.835938 -14.410156 15.828125 -14.109375 L 15.828125 -5.546875 C 15.828125 -3.753906 15.265625 -2.328125 14.140625 -1.265625 C 13.015625 -0.210938 11.46875 0.3125 9.5 0.3125 C 7.1875 0.3125 5.414062 -0.203125 4.1875 -1.234375 C 2.957031 -2.265625 2.34375 -3.695312 2.34375 -5.53125 L 2.34375 -14.046875 C 2.332031 -14.484375 2.132812 -14.804688 1.75 -15.015625 C 1.582031 -15.097656 1.394531 -15.140625 1.1875 -15.140625 L 0.828125 -15.140625 L 0.828125 -15.359375 L 7.15625 -15.359375 L 7.15625 -15.140625 L 6.8125 -15.140625 C 6.488281 -15.140625 6.210938 -15.039062 5.984375 -14.84375 C 5.765625 -14.65625 5.648438 -14.40625 5.640625 -14.09375 L 5.640625 -5.703125 C 5.640625 -4.148438 6.019531 -2.921875 6.78125 -2.015625 C 7.539062 -1.109375 8.585938 -0.65625 9.921875 -0.65625 C 11.253906 -0.65625 12.304688 -1.082031 13.078125 -1.9375 C 13.859375 -2.800781 14.253906 -3.960938 14.265625 -5.421875 L 14.265625 -14.09375 C 14.234375 -14.519531 14.035156 -14.828125 13.671875 -15.015625 C 13.492188 -15.097656 13.304688 -15.140625 13.109375 -15.140625 L 12.75 -15.140625 L 12.75 -15.359375 L 17.34375 -15.359375 Z M 17.34375 -15.140625 "/></g></g></g><g fill="#ffffff" fill-opacity="1"><g transform="translate(255.763292, 259.261686)"><g><path d="M 1.203125 -0.21875 C 1.585938 -0.21875 1.914062 -0.351562 2.1875 -0.625 C 2.457031 -0.894531 2.597656 -1.222656 2.609375 -1.609375 L 2.609375 -13.78125 C 2.597656 -14.3125 2.359375 -14.707031 1.890625 -14.96875 C 1.679688 -15.082031 1.453125 -15.140625 1.203125 -15.140625 L 0.921875 -15.140625 L 0.921875 -15.359375 L 7.59375 -15.359375 L 7.578125 -15.140625 L 7.3125 -15.140625 C 6.78125 -15.140625 6.378906 -14.914062 6.109375 -14.46875 C 5.972656 -14.257812 5.90625 -14.03125 5.90625 -13.78125 L 5.90625 -1.609375 C 5.90625 -1.222656 6.039062 -0.894531 6.3125 -0.625 C 6.59375 -0.351562 6.925781 -0.21875 7.3125 -0.21875 L 7.578125 -0.21875 L 7.59375 0 L 0.921875 0 L 0.921875 -0.21875 Z M 17.0625 0 L 15.25 0 C 13.03125 0 11.457031 -0.609375 10.53125 -1.828125 C 7.914062 -5.378906 6.609375 -7.1875 6.609375 -7.25 L 11.8125 -14.140625 C 11.925781 -14.285156 11.984375 -14.414062 11.984375 -14.53125 C 11.984375 -14.644531 11.960938 -14.75 11.921875 -14.84375 C 11.804688 -15.0625 11.601562 -15.171875 11.3125 -15.171875 L 11.09375 -15.171875 L 11.09375 -15.359375 L 16.109375 -15.359375 L 16.109375 -15.171875 L 16.03125 -15.171875 C 15.050781 -15.171875 14.253906 -14.816406 13.640625 -14.109375 L 9.359375 -9.046875 L 14.8125 -1.578125 C 15.488281 -0.703125 16.238281 -0.25 17.0625 -0.21875 Z M 17.0625 0 "/></g></g></g><g fill="#ffffff" fill-opacity="1"><g transform="translate(281.15558, 259.261686)"><g><path d="M 16.1875 -0.21875 L 16.390625 -0.21875 L 16.390625 0 L 9.390625 0 L 9.390625 -0.21875 L 9.59375 -0.21875 C 9.90625 -0.21875 10.140625 -0.316406 10.296875 -0.515625 C 10.453125 -0.710938 10.53125 -0.898438 10.53125 -1.078125 C 10.53125 -1.253906 10.492188 -1.429688 10.421875 -1.609375 L 9.34375 -4.296875 L 4.203125 -4.296875 L 3.0625 -1.609375 C 2.988281 -1.410156 2.953125 -1.226562 2.953125 -1.0625 C 2.953125 -0.894531 3.03125 -0.710938 3.1875 -0.515625 C 3.351562 -0.316406 3.597656 -0.21875 3.921875 -0.21875 L 4.09375 -0.21875 L 4.09375 0 L -0.59375 0 L -0.59375 -0.21875 L -0.40625 -0.21875 C -0.0625 -0.21875 0.273438 -0.316406 0.609375 -0.515625 C 0.941406 -0.722656 1.21875 -1.035156 1.4375 -1.453125 L 6.515625 -12.9375 C 7.203125 -14.382812 7.566406 -15.34375 7.609375 -15.8125 L 7.8125 -15.8125 L 14.328125 -1.5 C 14.546875 -1.070312 14.820312 -0.75 15.15625 -0.53125 C 15.5 -0.320312 15.84375 -0.21875 16.1875 -0.21875 Z M 4.578125 -5.21875 L 8.96875 -5.21875 L 6.84375 -10.625 Z M 4.578125 -5.21875 "/></g></g></g><g fill="#ffffff" fill-opacity="1"><g transform="translate(305.648234, 259.261686)"><g><path d="M 1.09375 -2.046875 C 1.09375 -3.097656 1.320312 -3.992188 1.78125 -4.734375 L 1.96875 -4.734375 C 1.957031 -4.617188 1.953125 -4.503906 1.953125 -4.390625 C 1.953125 -3.378906 2.3125 -2.492188 3.03125 -1.734375 C 3.757812 -0.984375 4.753906 -0.609375 6.015625 -0.609375 C 6.992188 -0.609375 7.753906 -0.84375 8.296875 -1.3125 C 8.847656 -1.78125 9.125 -2.375 9.125 -3.09375 C 9.125 -3.519531 8.988281 -3.898438 8.71875 -4.234375 C 8.445312 -4.566406 8 -4.941406 7.375 -5.359375 L 3.5625 -7.875 C 2.132812 -8.832031 1.421875 -10.003906 1.421875 -11.390625 C 1.421875 -11.535156 1.4375 -11.679688 1.46875 -11.828125 C 1.5625 -12.984375 2.015625 -13.910156 2.828125 -14.609375 C 3.640625 -15.316406 4.722656 -15.671875 6.078125 -15.671875 C 6.878906 -15.671875 7.875 -15.597656 9.0625 -15.453125 L 10.453125 -15.453125 L 10.171875 -12.234375 L 9.9375 -12.234375 C 9.9375 -12.992188 9.65625 -13.601562 9.09375 -14.0625 C 8.53125 -14.519531 7.78125 -14.75 6.84375 -14.75 C 5.707031 -14.75 4.882812 -14.398438 4.375 -13.703125 C 4.101562 -13.359375 3.96875 -13.019531 3.96875 -12.6875 C 3.96875 -12.351562 4.035156 -12.066406 4.171875 -11.828125 C 4.378906 -11.453125 4.828125 -11.046875 5.515625 -10.609375 L 9.703125 -7.875 C 11.015625 -7.007812 11.671875 -5.882812 11.671875 -4.5 C 11.671875 -2.945312 11.140625 -1.753906 10.078125 -0.921875 C 9.023438 -0.0976562 7.617188 0.3125 5.859375 0.3125 C 4.867188 0.3125 3.953125 0.191406 3.109375 -0.046875 C 2.265625 -0.296875 1.644531 -0.625 1.25 -1.03125 C 1.144531 -1.3125 1.09375 -1.648438 1.09375 -2.046875 Z M 1.09375 -2.046875 "/></g></g></g><g fill="#ffffff" fill-opacity="1"><g transform="translate(193.760346, 285.475428)"><g><path d="M 1.203125 -0.21875 C 1.585938 -0.21875 1.914062 -0.351562 2.1875 -0.625 C 2.457031 -0.894531 2.597656 -1.222656 2.609375 -1.609375 L 2.609375 -13.78125 C 2.597656 -14.3125 2.359375 -14.707031 1.890625 -14.96875 C 1.679688 -15.082031 1.453125 -15.140625 1.203125 -15.140625 L 0.921875 -15.140625 L 0.921875 -15.359375 L 7.59375 -15.359375 L 7.578125 -15.140625 L 7.3125 -15.140625 C 6.78125 -15.140625 6.378906 -14.914062 6.109375 -14.46875 C 5.972656 -14.257812 5.90625 -14.03125 5.90625 -13.78125 L 5.90625 -1.609375 C 5.90625 -1.222656 6.039062 -0.894531 6.3125 -0.625 C 6.59375 -0.351562 6.925781 -0.21875 7.3125 -0.21875 L 7.578125 -0.21875 L 7.59375 0 L 0.921875 0 L 0.921875 -0.21875 Z M 17.0625 0 L 15.25 0 C 13.03125 0 11.457031 -0.609375 10.53125 -1.828125 C 7.914062 -5.378906 6.609375 -7.1875 6.609375 -7.25 L 11.8125 -14.140625 C 11.925781 -14.285156 11.984375 -14.414062 11.984375 -14.53125 C 11.984375 -14.644531 11.960938 -14.75 11.921875 -14.84375 C 11.804688 -15.0625 11.601562 -15.171875 11.3125 -15.171875 L 11.09375 -15.171875 L 11.09375 -15.359375 L 16.109375 -15.359375 L 16.109375 -15.171875 L 16.03125 -15.171875 C 15.050781 -15.171875 14.253906 -14.816406 13.640625 -14.109375 L 9.359375 -9.046875 L 14.8125 -1.578125 C 15.488281 -0.703125 16.238281 -0.25 17.0625 -0.21875 Z M 17.0625 0 "/></g></g></g><g fill="#ffffff" fill-opacity="1"><g transform="translate(219.152634, 285.475428)"><g><path d="M 16.1875 -0.21875 L 16.390625 -0.21875 L 16.390625 0 L 9.390625 0 L 9.390625 -0.21875 L 9.59375 -0.21875 C 9.90625 -0.21875 10.140625 -0.316406 10.296875 -0.515625 C 10.453125 -0.710938 10.53125 -0.898438 10.53125 -1.078125 C 10.53125 -1.253906 10.492188 -1.429688 10.421875 -1.609375 L 9.34375 -4.296875 L 4.203125 -4.296875 L 3.0625 -1.609375 C 2.988281 -1.410156 2.953125 -1.226562 2.953125 -1.0625 C 2.953125 -0.894531 3.03125 -0.710938 3.1875 -0.515625 C 3.351562 -0.316406 3.597656 -0.21875 3.921875 -0.21875 L 4.09375 -0.21875 L 4.09375 0 L -0.59375 0 L -0.59375 -0.21875 L -0.40625 -0.21875 C -0.0625 -0.21875 0.273438 -0.316406 0.609375 -0.515625 C 0.941406 -0.722656 1.21875 -1.035156 1.4375 -1.453125 L 6.515625 -12.9375 C 7.203125 -14.382812 7.566406 -15.34375 7.609375 -15.8125 L 7.8125 -15.8125 L 14.328125 -1.5 C 14.546875 -1.070312 14.820312 -0.75 15.15625 -0.53125 C 15.5 -0.320312 15.84375 -0.21875 16.1875 -0.21875 Z M 4.578125 -5.21875 L 8.96875 -5.21875 L 6.84375 -10.625 Z M 4.578125 -5.21875 "/></g></g></g><g fill="#ffffff" fill-opacity="1"><g transform="translate(243.645288, 285.475428)"><g><path d="M 8.890625 -15.359375 C 11.484375 -15.359375 13.53125 -14.671875 15.03125 -13.296875 C 16.539062 -11.921875 17.296875 -10.046875 17.296875 -7.671875 C 17.296875 -5.304688 16.539062 -3.4375 15.03125 -2.0625 C 13.53125 -0.6875 11.484375 0 8.890625 0 L 0.921875 0 L 0.921875 -0.21875 L 1.203125 -0.21875 C 1.585938 -0.21875 1.914062 -0.351562 2.1875 -0.625 C 2.457031 -0.894531 2.597656 -1.222656 2.609375 -1.609375 L 2.609375 -13.890625 C 2.609375 -14.242188 2.460938 -14.539062 2.171875 -14.78125 C 1.890625 -15.019531 1.566406 -15.140625 1.203125 -15.140625 L 0.921875 -15.140625 L 0.921875 -15.359375 Z M 8.609375 -0.9375 C 9.660156 -0.9375 10.566406 -1.207031 11.328125 -1.75 C 12.097656 -2.289062 12.6875 -3.070312 13.09375 -4.09375 C 13.507812 -5.113281 13.71875 -6.222656 13.71875 -7.421875 C 13.71875 -8.617188 13.597656 -9.640625 13.359375 -10.484375 C 13.117188 -11.328125 12.78125 -12.039062 12.34375 -12.625 C 11.425781 -13.832031 10.179688 -14.4375 8.609375 -14.4375 L 5.90625 -14.4375 L 5.90625 -0.9375 Z M 8.609375 -0.9375 "/></g></g></g><g fill="#ffffff" fill-opacity="1"><g transform="translate(270.59548, 285.475428)"><g><path d="M 1.203125 -0.21875 C 1.585938 -0.21875 1.914062 -0.351562 2.1875 -0.625 C 2.457031 -0.894531 2.597656 -1.222656 2.609375 -1.609375 L 2.609375 -13.828125 C 2.578125 -14.210938 2.46875 -14.492188 2.28125 -14.671875 C 1.925781 -14.984375 1.566406 -15.140625 1.203125 -15.140625 L 0.921875 -15.140625 L 0.921875 -15.359375 L 9.328125 -15.359375 C 10.046875 -15.359375 10.640625 -15.414062 11.109375 -15.53125 C 11.578125 -15.644531 11.863281 -15.722656 11.96875 -15.765625 L 11.96875 -11.921875 L 11.75 -11.9375 L 11.75 -12.1875 C 11.75 -13.09375 11.410156 -13.734375 10.734375 -14.109375 C 10.410156 -14.304688 10.03125 -14.410156 9.59375 -14.421875 L 5.90625 -14.421875 L 5.90625 -8.03125 L 8.796875 -8.03125 C 9.335938 -8.050781 9.785156 -8.238281 10.140625 -8.59375 C 10.492188 -8.945312 10.671875 -9.390625 10.671875 -9.921875 L 10.671875 -10.125 L 10.890625 -10.125 L 10.890625 -5.046875 L 10.671875 -5.046875 L 10.671875 -5.21875 C 10.671875 -5.757812 10.5 -6.207031 10.15625 -6.5625 C 9.8125 -6.914062 9.375 -7.097656 8.84375 -7.109375 L 5.90625 -7.109375 L 5.90625 -0.9375 L 8.78125 -0.9375 C 9.851562 -0.9375 10.75 -1.242188 11.46875 -1.859375 C 12.195312 -2.472656 12.734375 -3.347656 13.078125 -4.484375 L 13.296875 -4.484375 L 12.296875 0 L 0.921875 0 L 0.921875 -0.21875 Z M 1.203125 -0.21875 "/></g></g></g><g fill="#ffffff" fill-opacity="1"><g transform="translate(293.223037, 285.475428)"><g><path d="M 1.203125 -0.21875 C 1.585938 -0.21875 1.914062 -0.351562 2.1875 -0.625 C 2.457031 -0.894531 2.597656 -1.222656 2.609375 -1.609375 L 2.609375 -13.765625 C 2.597656 -14.140625 2.457031 -14.460938 2.1875 -14.734375 C 1.914062 -15.003906 1.585938 -15.140625 1.203125 -15.140625 L 0.921875 -15.140625 L 0.921875 -15.359375 L 7.59375 -15.359375 L 7.578125 -15.140625 L 7.3125 -15.140625 C 6.925781 -15.140625 6.59375 -15.003906 6.3125 -14.734375 C 6.039062 -14.460938 5.90625 -14.140625 5.90625 -13.765625 L 5.90625 -0.9375 L 8.78125 -0.9375 C 9.851562 -0.9375 10.75 -1.242188 11.46875 -1.859375 C 12.195312 -2.472656 12.734375 -3.347656 13.078125 -4.484375 L 13.296875 -4.484375 L 12.296875 0 L 0.921875 0 L 0.921875 -0.21875 Z M 1.203125 -0.21875 "/></g></g></g><g fill="#ffffff" fill-opacity="1"><g transform="translate(315.52146, 285.475428)"><g><path d="M 16.1875 -0.21875 L 16.390625 -0.21875 L 16.390625 0 L 9.390625 0 L 9.390625 -0.21875 L 9.59375 -0.21875 C 9.90625 -0.21875 10.140625 -0.316406 10.296875 -0.515625 C 10.453125 -0.710938 10.53125 -0.898438 10.53125 -1.078125 C 10.53125 -1.253906 10.492188 -1.429688 10.421875 -1.609375 L 9.34375 -4.296875 L 4.203125 -4.296875 L 3.0625 -1.609375 C 2.988281 -1.410156 2.953125 -1.226562 2.953125 -1.0625 C 2.953125 -0.894531 3.03125 -0.710938 3.1875 -0.515625 C 3.351562 -0.316406 3.597656 -0.21875 3.921875 -0.21875 L 4.09375 -0.21875 L 4.09375 0 L -0.59375 0 L -0.59375 -0.21875 L -0.40625 -0.21875 C -0.0625 -0.21875 0.273438 -0.316406 0.609375 -0.515625 C 0.941406 -0.722656 1.21875 -1.035156 1.4375 -1.453125 L 6.515625 -12.9375 C 7.203125 -14.382812 7.566406 -15.34375 7.609375 -15.8125 L 7.8125 -15.8125 L 14.328125 -1.5 C 14.546875 -1.070312 14.820312 -0.75 15.15625 -0.53125 C 15.5 -0.320312 15.84375 -0.21875 16.1875 -0.21875 Z M 4.578125 -5.21875 L 8.96875 -5.21875 L 6.84375 -10.625 Z M 4.578125 -5.21875 "/></g></g></g></svg>