<svg xmlns="http://www.w3.org/2000/svg" xmlns:xlink="http://www.w3.org/1999/xlink" width="700" zoomAndPan="magnify" viewBox="0 0 525 359.999987" height="480" preserveAspectRatio="xMidYMid meet" version="1.0"><defs><g/></defs><g fill="#000000" fill-opacity="1"><g transform="translate(150.308221, 222.87131)"><g><path d="M 47.65625 0 C 52.695312 0 57.535156 -0.847656 62.171875 -2.546875 C 66.804688 -4.242188 71 -6.585938 74.75 -9.578125 C 78.5 -12.566406 81.75 -16.082031 84.5 -20.125 C 87.257812 -24.175781 89.226562 -28.488281 90.40625 -33.0625 L 90.40625 0 Z M 56.625 -123.109375 C 53.582031 -123.109375 51.035156 -121.90625 48.984375 -119.5 C 46.929688 -117.101562 45.90625 -114.4375 45.90625 -111.5 L 45.90625 0 L 4.390625 0 C 7.328125 0 9.820312 -1.195312 11.875 -3.59375 C 13.925781 -6 14.953125 -8.671875 14.953125 -11.609375 L 14.953125 -111.5 C 14.953125 -114.4375 13.925781 -117.101562 11.875 -119.5 C 9.820312 -121.90625 7.328125 -123.109375 4.390625 -123.109375 Z M 56.625 -123.109375 "/></g></g></g><g fill="#000000" fill-opacity="1"><g transform="translate(245.099595, 222.87131)"><g><path d="M 45.90625 -11.609375 C 45.90625 -8.671875 46.929688 -6 48.984375 -3.59375 C 51.035156 -1.195312 53.582031 0 56.625 0 L 4.390625 0 C 7.328125 0 9.820312 -1.195312 11.875 -3.59375 C 13.925781 -6 14.953125 -8.671875 14.953125 -11.609375 L 14.953125 -111.5 C 14.953125 -114.4375 13.925781 -117.101562 11.875 -119.5 C 9.820312 -121.90625 7.328125 -123.109375 4.390625 -123.109375 L 56.625 -123.109375 C 53.582031 -123.109375 51.035156 -121.90625 48.984375 -119.5 C 46.929688 -117.101562 45.90625 -114.4375 45.90625 -111.5 Z M 91.109375 -108.515625 C 91.109375 -110.273438 90.785156 -111.972656 90.140625 -113.609375 C 89.492188 -115.253906 88.640625 -116.75 87.578125 -118.09375 C 86.523438 -119.445312 85.265625 -120.5625 83.796875 -121.4375 C 82.335938 -122.320312 80.785156 -122.878906 79.140625 -123.109375 L 125.21875 -123.109375 C 122.050781 -122.753906 118.796875 -121.875 115.453125 -120.46875 C 112.117188 -119.0625 108.804688 -117.300781 105.515625 -115.1875 C 102.234375 -113.082031 99.097656 -110.710938 96.109375 -108.078125 C 93.117188 -105.441406 90.335938 -102.710938 87.765625 -99.890625 C 88.703125 -101.179688 89.492188 -102.53125 90.140625 -103.9375 C 90.785156 -105.34375 91.109375 -106.867188 91.109375 -108.515625 Z M 45.90625 -61.734375 C 46.019531 -61.617188 46.195312 -61.5625 46.4375 -61.5625 L 45.90625 -61.5625 Z M 70.34375 -80.546875 C 74.21875 -79.378906 77.738281 -76.566406 80.90625 -72.109375 C 84.070312 -67.648438 87.0625 -62.429688 89.875 -56.453125 C 92.6875 -50.472656 95.378906 -44.171875 97.953125 -37.546875 C 100.535156 -30.921875 103.234375 -24.820312 106.046875 -19.25 C 108.867188 -13.6875 111.832031 -9.085938 114.9375 -5.453125 C 118.039062 -1.816406 121.46875 0 125.21875 0 L 86 0 C 84.007812 0 82.015625 -1.40625 80.015625 -4.21875 C 78.023438 -7.03125 76.003906 -10.578125 73.953125 -14.859375 C 71.898438 -19.140625 69.847656 -23.828125 67.796875 -28.921875 C 65.742188 -34.023438 63.570312 -38.863281 61.28125 -43.4375 C 59 -48.007812 56.625 -51.96875 54.15625 -55.3125 C 51.695312 -58.65625 49.125 -60.738281 46.4375 -61.5625 C 47.84375 -61.675781 49.484375 -62.316406 51.359375 -63.484375 C 53.234375 -64.660156 55.222656 -66.128906 57.328125 -67.890625 C 59.441406 -69.648438 61.613281 -71.640625 63.84375 -73.859375 C 66.070312 -76.085938 68.238281 -78.316406 70.34375 -80.546875 Z M 70.34375 -80.546875 "/></g></g></g><g fill="#000000" fill-opacity="1"><g transform="translate(206.579839, 257.508141)"><g><path d="M 1.203125 -0.21875 C 1.585938 -0.21875 1.914062 -0.351562 2.1875 -0.625 C 2.457031 -0.894531 2.597656 -1.222656 2.609375 -1.609375 L 2.609375 -13.78125 C 2.597656 -14.164062 2.457031 -14.492188 2.1875 -14.765625 C 1.914062 -15.035156 1.585938 -15.171875 1.203125 -15.171875 L 0.921875 -15.171875 L 0.921875 -15.390625 L 7.609375 -15.390625 L 7.578125 -15.171875 L 7.328125 -15.171875 C 6.941406 -15.171875 6.609375 -15.035156 6.328125 -14.765625 C 6.046875 -14.492188 5.90625 -14.164062 5.90625 -13.78125 L 5.90625 -0.953125 L 8.796875 -0.953125 C 9.867188 -0.953125 10.765625 -1.257812 11.484375 -1.875 C 12.210938 -2.488281 12.753906 -3.359375 13.109375 -4.484375 L 13.328125 -4.484375 L 12.3125 0 L 0.921875 0 L 0.921875 -0.21875 Z M 1.203125 -0.21875 "/></g></g></g><g fill="#000000" fill-opacity="1"><g transform="translate(228.91154, 257.508141)"><g><path d="M 17.375 -15.171875 L 17 -15.171875 C 16.6875 -15.171875 16.421875 -15.070312 16.203125 -14.875 C 15.984375 -14.675781 15.863281 -14.429688 15.84375 -14.140625 L 15.84375 -5.5625 C 15.84375 -3.757812 15.28125 -2.328125 14.15625 -1.265625 C 13.03125 -0.210938 11.484375 0.3125 9.515625 0.3125 C 7.203125 0.3125 5.429688 -0.203125 4.203125 -1.234375 C 2.972656 -2.273438 2.359375 -3.710938 2.359375 -5.546875 L 2.359375 -14.0625 C 2.335938 -14.507812 2.140625 -14.832031 1.765625 -15.03125 C 1.585938 -15.125 1.394531 -15.171875 1.1875 -15.171875 L 0.828125 -15.171875 L 0.828125 -15.390625 L 7.171875 -15.390625 L 7.171875 -15.171875 L 6.8125 -15.171875 C 6.488281 -15.171875 6.21875 -15.070312 6 -14.875 C 5.78125 -14.675781 5.664062 -14.421875 5.65625 -14.109375 L 5.65625 -5.71875 C 5.65625 -4.164062 6.035156 -2.929688 6.796875 -2.015625 C 7.554688 -1.109375 8.601562 -0.65625 9.9375 -0.65625 C 11.269531 -0.65625 12.320312 -1.082031 13.09375 -1.9375 C 13.875 -2.800781 14.273438 -3.96875 14.296875 -5.4375 L 14.296875 -14.109375 C 14.265625 -14.535156 14.066406 -14.84375 13.703125 -15.03125 C 13.523438 -15.125 13.332031 -15.171875 13.125 -15.171875 L 12.765625 -15.171875 L 12.765625 -15.390625 L 17.375 -15.390625 Z M 17.375 -15.171875 "/></g></g></g><g fill="#000000" fill-opacity="1"><g transform="translate(255.748449, 257.508141)"><g><path d="M 1.203125 -0.21875 C 1.585938 -0.21875 1.914062 -0.351562 2.1875 -0.625 C 2.457031 -0.894531 2.597656 -1.222656 2.609375 -1.609375 L 2.609375 -13.8125 C 2.597656 -14.332031 2.359375 -14.726562 1.890625 -15 C 1.679688 -15.113281 1.453125 -15.171875 1.203125 -15.171875 L 0.921875 -15.171875 L 0.921875 -15.390625 L 7.609375 -15.390625 L 7.578125 -15.171875 L 7.328125 -15.171875 C 6.796875 -15.171875 6.390625 -14.941406 6.109375 -14.484375 C 5.972656 -14.285156 5.90625 -14.0625 5.90625 -13.8125 L 5.90625 -1.609375 C 5.90625 -1.222656 6.046875 -0.894531 6.328125 -0.625 C 6.609375 -0.351562 6.941406 -0.21875 7.328125 -0.21875 L 7.578125 -0.21875 L 7.609375 0 L 0.921875 0 L 0.921875 -0.21875 Z M 17.078125 0 L 15.28125 0 C 13.050781 0 11.472656 -0.609375 10.546875 -1.828125 C 7.929688 -5.390625 6.625 -7.195312 6.625 -7.25 L 11.828125 -14.15625 C 11.941406 -14.300781 12 -14.429688 12 -14.546875 C 12 -14.671875 11.976562 -14.773438 11.9375 -14.859375 C 11.820312 -15.078125 11.617188 -15.1875 11.328125 -15.1875 L 11.109375 -15.1875 L 11.109375 -15.390625 L 16.140625 -15.390625 L 16.140625 -15.1875 L 16.046875 -15.1875 C 15.066406 -15.1875 14.269531 -14.835938 13.65625 -14.140625 L 9.359375 -9.0625 L 14.84375 -1.578125 C 15.507812 -0.703125 16.253906 -0.25 17.078125 -0.21875 Z M 17.078125 0 "/></g></g></g><g fill="#000000" fill-opacity="1"><g transform="translate(281.178853, 257.508141)"><g><path d="M 16.21875 -0.21875 L 16.421875 -0.21875 L 16.421875 0 L 9.40625 0 L 9.40625 -0.21875 L 9.59375 -0.21875 C 9.914062 -0.21875 10.15625 -0.316406 10.3125 -0.515625 C 10.46875 -0.710938 10.546875 -0.898438 10.546875 -1.078125 C 10.546875 -1.253906 10.507812 -1.429688 10.4375 -1.609375 L 9.359375 -4.3125 L 4.21875 -4.3125 L 3.078125 -1.609375 C 3.003906 -1.410156 2.96875 -1.226562 2.96875 -1.0625 C 2.96875 -0.894531 3.046875 -0.710938 3.203125 -0.515625 C 3.359375 -0.316406 3.597656 -0.21875 3.921875 -0.21875 L 4.109375 -0.21875 L 4.109375 0 L -0.59375 0 L -0.59375 -0.21875 L -0.40625 -0.21875 C -0.0625 -0.21875 0.273438 -0.316406 0.609375 -0.515625 C 0.941406 -0.722656 1.21875 -1.035156 1.4375 -1.453125 L 6.515625 -12.953125 C 7.210938 -14.398438 7.582031 -15.359375 7.625 -15.828125 L 7.8125 -15.828125 L 14.34375 -1.5 C 14.5625 -1.070312 14.835938 -0.75 15.171875 -0.53125 C 15.515625 -0.320312 15.863281 -0.21875 16.21875 -0.21875 Z M 4.59375 -5.234375 L 8.984375 -5.234375 L 6.859375 -10.640625 Z M 4.59375 -5.234375 "/></g></g></g><g fill="#000000" fill-opacity="1"><g transform="translate(305.708221, 257.508141)"><g><path d="M 1.09375 -2.046875 C 1.09375 -3.097656 1.320312 -4 1.78125 -4.75 L 1.984375 -4.75 C 1.960938 -4.632812 1.953125 -4.515625 1.953125 -4.390625 C 1.953125 -3.378906 2.316406 -2.492188 3.046875 -1.734375 C 3.773438 -0.984375 4.769531 -0.609375 6.03125 -0.609375 C 7.007812 -0.609375 7.769531 -0.84375 8.3125 -1.3125 C 8.863281 -1.78125 9.140625 -2.375 9.140625 -3.09375 C 9.140625 -3.519531 9.003906 -3.898438 8.734375 -4.234375 C 8.460938 -4.578125 8.015625 -4.953125 7.390625 -5.359375 L 3.5625 -7.890625 C 2.132812 -8.847656 1.421875 -10.019531 1.421875 -11.40625 C 1.421875 -11.550781 1.4375 -11.695312 1.46875 -11.84375 C 1.5625 -13.007812 2.015625 -13.941406 2.828125 -14.640625 C 3.640625 -15.347656 4.726562 -15.703125 6.09375 -15.703125 C 6.894531 -15.703125 7.890625 -15.628906 9.078125 -15.484375 L 10.46875 -15.484375 L 10.171875 -12.25 L 9.953125 -12.25 C 9.953125 -13.007812 9.671875 -13.617188 9.109375 -14.078125 C 8.546875 -14.546875 7.796875 -14.78125 6.859375 -14.78125 C 5.710938 -14.78125 4.882812 -14.425781 4.375 -13.71875 C 4.113281 -13.382812 3.984375 -13.046875 3.984375 -12.703125 C 3.984375 -12.367188 4.046875 -12.082031 4.171875 -11.84375 C 4.378906 -11.46875 4.828125 -11.0625 5.515625 -10.625 L 9.71875 -7.890625 C 11.039062 -7.023438 11.703125 -5.894531 11.703125 -4.5 C 11.703125 -2.945312 11.171875 -1.753906 10.109375 -0.921875 C 9.046875 -0.0976562 7.632812 0.3125 5.875 0.3125 C 4.875 0.3125 3.953125 0.191406 3.109375 -0.046875 C 2.265625 -0.296875 1.644531 -0.625 1.25 -1.03125 C 1.144531 -1.3125 1.09375 -1.648438 1.09375 -2.046875 Z M 1.09375 -2.046875 "/></g></g></g><g fill="#000000" fill-opacity="1"><g transform="translate(193.646303, 282.241596)"><g><path d="M 1.203125 -0.21875 C 1.585938 -0.21875 1.914062 -0.351562 2.1875 -0.625 C 2.457031 -0.894531 2.597656 -1.222656 2.609375 -1.609375 L 2.609375 -13.8125 C 2.597656 -14.332031 2.359375 -14.726562 1.890625 -15 C 1.679688 -15.113281 1.453125 -15.171875 1.203125 -15.171875 L 0.921875 -15.171875 L 0.921875 -15.390625 L 7.609375 -15.390625 L 7.578125 -15.171875 L 7.328125 -15.171875 C 6.796875 -15.171875 6.390625 -14.941406 6.109375 -14.484375 C 5.972656 -14.285156 5.90625 -14.0625 5.90625 -13.8125 L 5.90625 -1.609375 C 5.90625 -1.222656 6.046875 -0.894531 6.328125 -0.625 C 6.609375 -0.351562 6.941406 -0.21875 7.328125 -0.21875 L 7.578125 -0.21875 L 7.609375 0 L 0.921875 0 L 0.921875 -0.21875 Z M 17.078125 0 L 15.28125 0 C 13.050781 0 11.472656 -0.609375 10.546875 -1.828125 C 7.929688 -5.390625 6.625 -7.195312 6.625 -7.25 L 11.828125 -14.15625 C 11.941406 -14.300781 12 -14.429688 12 -14.546875 C 12 -14.671875 11.976562 -14.773438 11.9375 -14.859375 C 11.820312 -15.078125 11.617188 -15.1875 11.328125 -15.1875 L 11.109375 -15.1875 L 11.109375 -15.390625 L 16.140625 -15.390625 L 16.140625 -15.1875 L 16.046875 -15.1875 C 15.066406 -15.1875 14.269531 -14.835938 13.65625 -14.140625 L 9.359375 -9.0625 L 14.84375 -1.578125 C 15.507812 -0.703125 16.253906 -0.25 17.078125 -0.21875 Z M 17.078125 0 "/></g></g></g><g fill="#000000" fill-opacity="1"><g transform="translate(219.076706, 282.241596)"><g><path d="M 16.21875 -0.21875 L 16.421875 -0.21875 L 16.421875 0 L 9.40625 0 L 9.40625 -0.21875 L 9.59375 -0.21875 C 9.914062 -0.21875 10.15625 -0.316406 10.3125 -0.515625 C 10.46875 -0.710938 10.546875 -0.898438 10.546875 -1.078125 C 10.546875 -1.253906 10.507812 -1.429688 10.4375 -1.609375 L 9.359375 -4.3125 L 4.21875 -4.3125 L 3.078125 -1.609375 C 3.003906 -1.410156 2.96875 -1.226562 2.96875 -1.0625 C 2.96875 -0.894531 3.046875 -0.710938 3.203125 -0.515625 C 3.359375 -0.316406 3.597656 -0.21875 3.921875 -0.21875 L 4.109375 -0.21875 L 4.109375 0 L -0.59375 0 L -0.59375 -0.21875 L -0.40625 -0.21875 C -0.0625 -0.21875 0.273438 -0.316406 0.609375 -0.515625 C 0.941406 -0.722656 1.21875 -1.035156 1.4375 -1.453125 L 6.515625 -12.953125 C 7.210938 -14.398438 7.582031 -15.359375 7.625 -15.828125 L 7.8125 -15.828125 L 14.34375 -1.5 C 14.5625 -1.070312 14.835938 -0.75 15.171875 -0.53125 C 15.515625 -0.320312 15.863281 -0.21875 16.21875 -0.21875 Z M 4.59375 -5.234375 L 8.984375 -5.234375 L 6.859375 -10.640625 Z M 4.59375 -5.234375 "/></g></g></g><g fill="#000000" fill-opacity="1"><g transform="translate(243.606073, 282.241596)"><g><path d="M 8.90625 -15.390625 C 11.5 -15.390625 13.550781 -14.695312 15.0625 -13.3125 C 16.570312 -11.9375 17.328125 -10.0625 17.328125 -7.6875 C 17.328125 -5.320312 16.570312 -3.445312 15.0625 -2.0625 C 13.550781 -0.6875 11.5 0 8.90625 0 L 0.921875 0 L 0.921875 -0.21875 L 1.203125 -0.21875 C 1.585938 -0.21875 1.914062 -0.351562 2.1875 -0.625 C 2.457031 -0.894531 2.597656 -1.222656 2.609375 -1.609375 L 2.609375 -13.921875 C 2.609375 -14.265625 2.46875 -14.554688 2.1875 -14.796875 C 1.90625 -15.046875 1.578125 -15.171875 1.203125 -15.171875 L 0.921875 -15.171875 L 0.921875 -15.390625 Z M 8.625 -0.953125 C 9.675781 -0.953125 10.585938 -1.222656 11.359375 -1.765625 C 12.128906 -2.304688 12.71875 -3.082031 13.125 -4.09375 C 13.53125 -5.113281 13.734375 -6.222656 13.734375 -7.421875 C 13.734375 -8.628906 13.613281 -9.65625 13.375 -10.5 C 13.132812 -11.34375 12.796875 -12.054688 12.359375 -12.640625 C 11.441406 -13.859375 10.195312 -14.46875 8.625 -14.46875 L 5.90625 -14.46875 L 5.90625 -0.953125 Z M 8.625 -0.953125 "/></g></g></g><g fill="#000000" fill-opacity="1"><g transform="translate(270.596814, 282.241596)"><g><path d="M 1.203125 -0.21875 C 1.585938 -0.21875 1.914062 -0.351562 2.1875 -0.625 C 2.457031 -0.894531 2.597656 -1.222656 2.609375 -1.609375 L 2.609375 -13.84375 C 2.585938 -14.226562 2.476562 -14.507812 2.28125 -14.6875 C 1.9375 -15.007812 1.578125 -15.171875 1.203125 -15.171875 L 0.921875 -15.171875 L 0.921875 -15.390625 L 9.34375 -15.390625 C 10.0625 -15.390625 10.65625 -15.441406 11.125 -15.546875 C 11.59375 -15.660156 11.878906 -15.738281 11.984375 -15.78125 L 11.984375 -11.9375 L 11.765625 -11.953125 L 11.765625 -12.203125 C 11.765625 -13.109375 11.425781 -13.753906 10.75 -14.140625 C 10.425781 -14.328125 10.046875 -14.425781 9.609375 -14.4375 L 5.90625 -14.4375 L 5.90625 -8.046875 L 8.8125 -8.046875 C 9.351562 -8.054688 9.800781 -8.238281 10.15625 -8.59375 C 10.507812 -8.957031 10.6875 -9.40625 10.6875 -9.9375 L 10.6875 -10.140625 L 10.90625 -10.140625 L 10.90625 -5.0625 L 10.6875 -5.0625 L 10.6875 -5.234375 C 10.6875 -5.773438 10.515625 -6.21875 10.171875 -6.5625 C 9.828125 -6.914062 9.390625 -7.101562 8.859375 -7.125 L 5.90625 -7.125 L 5.90625 -0.953125 L 8.796875 -0.953125 C 9.867188 -0.953125 10.765625 -1.257812 11.484375 -1.875 C 12.210938 -2.488281 12.753906 -3.359375 13.109375 -4.484375 L 13.328125 -4.484375 L 12.3125 0 L 0.921875 0 L 0.921875 -0.21875 Z M 1.203125 -0.21875 "/></g></g></g><g fill="#000000" fill-opacity="1"><g transform="translate(293.258165, 282.241596)"><g><path d="M 1.203125 -0.21875 C 1.585938 -0.21875 1.914062 -0.351562 2.1875 -0.625 C 2.457031 -0.894531 2.597656 -1.222656 2.609375 -1.609375 L 2.609375 -13.78125 C 2.597656 -14.164062 2.457031 -14.492188 2.1875 -14.765625 C 1.914062 -15.035156 1.585938 -15.171875 1.203125 -15.171875 L 0.921875 -15.171875 L 0.921875 -15.390625 L 7.609375 -15.390625 L 7.578125 -15.171875 L 7.328125 -15.171875 C 6.941406 -15.171875 6.609375 -15.035156 6.328125 -14.765625 C 6.046875 -14.492188 5.90625 -14.164062 5.90625 -13.78125 L 5.90625 -0.953125 L 8.796875 -0.953125 C 9.867188 -0.953125 10.765625 -1.257812 11.484375 -1.875 C 12.210938 -2.488281 12.753906 -3.359375 13.109375 -4.484375 L 13.328125 -4.484375 L 12.3125 0 L 0.921875 0 L 0.921875 -0.21875 Z M 1.203125 -0.21875 "/></g></g></g><g fill="#000000" fill-opacity="1"><g transform="translate(315.589868, 282.241596)"><g><path d="M 16.21875 -0.21875 L 16.421875 -0.21875 L 16.421875 0 L 9.40625 0 L 9.40625 -0.21875 L 9.59375 -0.21875 C 9.914062 -0.21875 10.15625 -0.316406 10.3125 -0.515625 C 10.46875 -0.710938 10.546875 -0.898438 10.546875 -1.078125 C 10.546875 -1.253906 10.507812 -1.429688 10.4375 -1.609375 L 9.359375 -4.3125 L 4.21875 -4.3125 L 3.078125 -1.609375 C 3.003906 -1.410156 2.96875 -1.226562 2.96875 -1.0625 C 2.96875 -0.894531 3.046875 -0.710938 3.203125 -0.515625 C 3.359375 -0.316406 3.597656 -0.21875 3.921875 -0.21875 L 4.109375 -0.21875 L 4.109375 0 L -0.59375 0 L -0.59375 -0.21875 L -0.40625 -0.21875 C -0.0625 -0.21875 0.273438 -0.316406 0.609375 -0.515625 C 0.941406 -0.722656 1.21875 -1.035156 1.4375 -1.453125 L 6.515625 -12.953125 C 7.210938 -14.398438 7.582031 -15.359375 7.625 -15.828125 L 7.8125 -15.828125 L 14.34375 -1.5 C 14.5625 -1.070312 14.835938 -0.75 15.171875 -0.53125 C 15.515625 -0.320312 15.863281 -0.21875 16.21875 -0.21875 Z M 4.59375 -5.234375 L 8.984375 -5.234375 L 6.859375 -10.640625 Z M 4.59375 -5.234375 "/></g></g></g></svg>